{"accessors":[{"name":"立方体-Mesh_0_positions","componentType":5126,"count":8,"min":[-150,-300,-75],"max":[150,300,75],"type":"VEC3","bufferView":0,"byteOffset":0},{"name":"立方体-Mesh_0_normals","componentType":5126,"count":8,"min":[0,0,-1],"max":[0,0,1],"type":"VEC3","bufferView":1,"byteOffset":0},{"name":"立方体-Mesh_0_texcoords","componentType":5126,"count":8,"min":[0,0],"max":[1,1],"type":"VEC2","bufferView":2,"byteOffset":0},{"name":"立方体-Mesh_0_indices","componentType":5123,"count":12,"min":[0],"max":[7],"type":"SCALAR","bufferView":3,"byteOffset":0},{"name":"立方体-Mesh_1_positions","componentType":5126,"count":12,"min":[-150,-300,-75],"max":[150,300,75],"type":"VEC3","bufferView":0,"byteOffset":96},{"name":"立方体-Mesh_1_normals","componentType":5126,"count":12,"min":[-1,-1,0],"max":[1,0,0],"type":"VEC3","bufferView":1,"byteOffset":96},{"name":"立方体-Mesh_1_texcoords","componentType":5126,"count":12,"min":[0,0],"max":[1,1],"type":"VEC2","bufferView":2,"byteOffset":64},{"name":"立方体-Mesh_1_indices","componentType":5123,"count":18,"min":[0],"max":[11],"type":"SCALAR","bufferView":3,"byteOffset":24},{"name":"立方体-Mesh_2_positions","componentType":5126,"count":4,"min":[-150,300,-75],"max":[150,300,75],"type":"VEC3","bufferView":0,"byteOffset":240},{"name":"立方体-Mesh_2_normals","componentType":5126,"count":4,"min":[0,1,0],"max":[0,1,0],"type":"VEC3","bufferView":1,"byteOffset":240},{"name":"立方体-Mesh_2_texcoords","componentType":5126,"count":4,"min":[0,0],"max":[1,1],"type":"VEC2","bufferView":2,"byteOffset":160},{"name":"立方体-Mesh_2_indices","componentType":5123,"count":6,"min":[0],"max":[3],"type":"SCALAR","bufferView":3,"byteOffset":60}],"asset":{"generator":"obj2gltf","version":"2.0"},"buffers":[{"name":"反1","byteLength":15992,"uri":"data:application/octet-stream;base64,"}],"bufferViews":[{"name":"bufferView_0","buffer":0,"byteLength":288,"byteOffset":0,"byteStride":12,"target":34962},{"name":"bufferView_1","buffer":0,"byteLength":288,"byteOffset":288,"byteStride":12,"target":34962},{"name":"bufferView_2","buffer":0,"byteLength":192,"byteOffset":576,"byteStride":8,"target":34962},{"name":"bufferView_3","buffer":0,"byteLength":72,"byteOffset":768,"target":34963},{"buffer":0,"byteOffset":840,"byteLength":8524},{"buffer":0,"byteOffset":9364,"byteLength":6625}],"images":[{"name":"zm","mimeType":"image/png","bufferView":4},{"name":"侧面","mimeType":"image/png","bufferView":5}],"materials":[{"name":"正面","pbrMetallicRoughness":{"baseColorTexture":{"index":0},"baseColorFactor":[1,1,1,1],"metallicFactor":0,"roughnessFactor":1},"emissiveFactor":[0,0,0],"alphaMode":"OPAQUE","doubleSided":false},{"name":"侧面","pbrMetallicRoughness":{"baseColorTexture":{"index":1},"baseColorFactor":[1,1,1,1],"metallicFactor":0,"roughnessFactor":0.95},"emissiveFactor":[0,0,0],"alphaMode":"OPAQUE","doubleSided":false},{"name":"顶部","pbrMetallicRoughness":{"baseColorFactor":[0.93725490570068,0.90588235855103,0.82745099067688,1],"metallicFactor":0,"roughnessFactor":0.95},"emissiveFactor":[0,0,0],"alphaMode":"OPAQUE","doubleSided":false}],"meshes":[{"name":"立方体-Mesh","primitives":[{"attributes":{"POSITION":0,"NORMAL":1,"TEXCOORD_0":2},"indices":3,"material":0,"mode":4},{"attributes":{"POSITION":4,"NORMAL":5,"TEXCOORD_0":6},"indices":7,"material":1,"mode":4},{"attributes":{"POSITION":8,"NORMAL":9,"TEXCOORD_0":10},"indices":11,"material":2,"mode":4}]}],"nodes":[{"name":"立方体","mesh":0}],"samplers":[{"magFilter":9729,"minFilter":9986,"wrapS":10497,"wrapT":10497}],"scene":0,"scenes":[{"nodes":[0]}],"textures":[{"name":"zm","sampler":0,"source":0},{"name":"侧面","sampler":0,"source":1}]}