{"asset":{"version":"2.0","generator":"GLTFExporter"},"scenes":[{"nodes":[0,1,2]}],"scene":0,"nodes":[{"mesh":0},{"mesh":1},{"mesh":2}],"bufferViews":[{"buffer":0,"byteOffset":0,"byteLength":684,"target":34962,"byteStride":12},{"buffer":0,"byteOffset":684,"byteLength":684,"target":34962,"byteStride":12},{"buffer":0,"byteOffset":1368,"byteLength":684,"target":34962,"byteStride":12},{"buffer":0,"byteOffset":2052,"byteLength":456,"target":34962,"byteStride":8},{"buffer":0,"byteOffset":2508,"byteLength":1584,"target":34962,"byteStride":12},{"buffer":0,"byteOffset":4092,"byteLength":1584,"target":34962,"byteStride":12},{"buffer":0,"byteOffset":5676,"byteLength":1584,"target":34962,"byteStride":12},{"buffer":0,"byteOffset":7260,"byteLength":1056,"target":34962,"byteStride":8},{"buffer":0,"byteOffset":8316,"byteLength":288,"target":34962,"byteStride":12},{"buffer":0,"byteOffset":8604,"byteLength":288,"target":34962,"byteStride":12},{"buffer":0,"byteOffset":8892,"byteLength":288,"target":34962,"byteStride":12},{"buffer":0,"byteOffset":9180,"byteLength":192,"target":34962,"byteStride":8}],"buffers":[{"byteLength":9372,"uri":"data:application/octet-stream;base64,"}],"accessors":[{"bufferView":0,"componentType":5126,"count":57,"max":[28,33,11],"min":[-44,33,-7],"type":"VEC3"},{"bufferView":1,"componentType":5126,"count":57,"max":[0,0,1],"min":[0,0,1],"type":"VEC3"},{"bufferView":2,"componentType":5126,"count":57,"max":[1,1,1],"min":[1,1,1],"type":"VEC3"},{"bufferView":3,"componentType":5126,"count":57,"max":[28,11],"min":[-44,-7],"type":"VEC2"},{"bufferView":4,"componentType":5126,"count":132,"max":[28,33,11],"min":[-44,0,-7],"type":"VEC3"},{"bufferView":5,"componentType":5126,"count":132,"max":[1,0,1],"min":[-1,0,-1],"type":"VEC3"},{"bufferView":6,"componentType":5126,"count":132,"max":[1,1,1],"min":[1,1,1],"type":"VEC3"},{"bufferView":7,"componentType":5126,"count":132,"max":[0.4921875,1],"min":[0,0.484375],"type":"VEC2"},{"bufferView":8,"componentType":5126,"count":24,"max":[19,33,5],"min":[-39,0,-4],"type":"VEC3"},{"bufferView":9,"componentType":5126,"count":24,"max":[1,0,1],"min":[-1,0,-1],"type":"VEC3"},{"bufferView":10,"componentType":5126,"count":24,"max":[1,1,1],"min":[1,1,1],"type":"VEC3"},{"bufferView":11,"componentType":5126,"count":24,"max":[0.46875,1],"min":[0,0.484375],"type":"VEC2"}],"materials":[{"pbrMetallicRoughness":{"baseColorFactor":[0.6666666666666666,0.6666666666666666,0.6666666666666666,1],"metallicFactor":0,"roughnessFactor":0.9},"extensions":{"KHR_materials_unlit":{}}},{"pbrMetallicRoughness":{"metallicFactor":0,"roughnessFactor":0.9,"baseColorTexture":{"index":0}},"extensions":{"KHR_materials_unlit":{}}},{"pbrMetallicRoughness":{"metallicFactor":0,"roughnessFactor":0.9,"baseColorTexture":{"index":0}},"extensions":{"KHR_materials_unlit":{}}}],"meshes":[{"primitives":[{"mode":4,"attributes":{"POSITION":0,"NORMAL":1,"COLOR_0":2,"TEXCOORD_0":3},"material":0}]},{"primitives":[{"mode":4,"attributes":{"POSITION":4,"NORMAL":5,"COLOR_0":6,"TEXCOORD_0":7},"material":1}]},{"primitives":[{"mode":4,"attributes":{"POSITION":8,"NORMAL":9,"COLOR_0":10,"TEXCOORD_0":11},"material":2}]}],"textures":[{"sampler":0,"source":0}],"samplers":[{"magFilter":9729,"minFilter":9987,"wrapS":33071,"wrapT":33071}],"images":[{"mimeType":"image/png","uri":"data:image/png;base64,"}],"extensionsUsed":["KHR_materials_unlit"]}