{
	"bufferViews":[{
		"buffer":0,
		"byteOffset":0,
		"byteLength":240,
		"target":34963
	},
	{
		"buffer":0,
		"byteOffset":240,
		"byteLength":2560,
		"target":34962,
		"byteStride":32
	},
	{
		"buffer":1,
		"byteOffset":0,
		"byteLength":48,
		"target":34963
	},
	{
		"buffer":1,
		"byteOffset":48,
		"byteLength":512,
		"target":34962,
		"byteStride":32
	}],
	"asset":{
		"version":"2.0",
		"generator":"Created using the official Cinema 4D glTF Exporter 1.000x284978"
	},
	"scenes":[{
		"nodes":[0]
	}],
	"materials":[{
		"pbrMetallicRoughness":{
			"baseColorFactor":[0.984313725490196,
			0.9490196078431372,
			0.8901960784313725,
			1.0],
			"metallicFactor":1.0,
			"roughnessFactor":1.0
		},
		"emissiveFactor":[0.3333333333333333,
		0.3568627450980392,
		0.396078431372549],
		"alphaMode":"OPAQUE",
		"doubleSided":true,
		"name":"材质"
	},
	{
		"pbrMetallicRoughness":{
			"baseColorFactor":[0.8,
			0.8,
			0.8,
			1.0],
			"metallicFactor":1.0,
			"roughnessFactor":1.0
		},
		"emissiveFactor":[1.0,
		1.0,
		1.0],
		"alphaMode":"OPAQUE",
		"doubleSided":true,
		"name":"材质.1"
	}],
	"nodes":[{
		"name":"立方体.4",
		"translation":[0.0,
		100.0,
		0.0],
		"rotation":[0.0,
		0.0,
		0.0,
		-1.0],
		"scale":[1.0,
		1.0,
		1.0],
		"children":[1,
		2]
	},
	{
		"name":"立方体.4-材质",
		"mesh":0
	},
	{
		"name":"立方体.4-材质.1",
		"mesh":1
	}],
	"meshes":[{
		"name":"立方体.4-材质",
		"primitives":[{
			"attributes":{
				"POSITION":1,
				"NORMAL":2,
				"TEXCOORD_0":3
			},
			"indices":0,
			"material":0
		}]
	},
	{
		"name":"立方体.4-材质.1",
		"primitives":[{
			"attributes":{
				"POSITION":5,
				"NORMAL":6,
				"TEXCOORD_0":7
			},
			"indices":4,
			"material":1
		}]
	}],
	"accessors":[{
		"bufferView":0,
		"type":"SCALAR",
		"componentType":5123,
		"max":[79],
		"count":120,
		"byteOffset":0,
		"min":[0]
	},
	{
		"bufferView":1,
		"type":"VEC3",
		"componentType":5126,
		"max":[332.5969543457031,
		100.0,
		346.8558044433594],
		"count":80,
		"byteOffset":0,
		"min":[-137.72525024414063,
		-100.0,
		-50.0]
	},
	{
		"bufferView":1,
		"type":"VEC3",
		"componentType":5126,
		"max":[1.0,
		0.0,
		1.0],
		"count":80,
		"byteOffset":12,
		"min":[-1.0,
		-1.0,
		-1.0]
	},
	{
		"bufferView":1,
		"type":"VEC2",
		"componentType":5126,
		"max":[1.0,
		1.0],
		"count":80,
		"byteOffset":24,
		"min":[0.0,
		0.0]
	},
	{
		"bufferView":2,
		"type":"SCALAR",
		"componentType":5123,
		"max":[15],
		"count":24,
		"byteOffset":0,
		"min":[0]
	},
	{
		"bufferView":3,
		"type":"VEC3",
		"componentType":5126,
		"max":[332.5969543457031,
		100.0,
		346.8558044433594],
		"count":16,
		"byteOffset":0,
		"min":[-137.72525024414063,
		100.0,
		-50.0]
	},
	{
		"bufferView":3,
		"type":"VEC3",
		"componentType":5126,
		"max":[0.0,
		1.0,
		0.0],
		"count":16,
		"byteOffset":12,
		"min":[0.0,
		1.0,
		0.0]
	},
	{
		"bufferView":3,
		"type":"VEC2",
		"componentType":5126,
		"max":[1.0,
		1.0],
		"count":16,
		"byteOffset":24,
		"min":[0.0,
		0.0]
	}],
	"buffers":[{
		"uri":"data:application/octet-stream;base64,",
		"byteLength":2800
	},
	{
		"uri":"data:application/octet-stream;base64,",
		"byteLength":560
	}]
}