{
	"bufferViews":[{
		"buffer":0,
		"byteOffset":0,
		"byteLength":36,
		"target":34963
	},
	{
		"buffer":0,
		"byteOffset":36,
		"byteLength":256,
		"target":34962,
		"byteStride":32
	},
	{
		"buffer":1,
		"byteOffset":0,
		"byteLength":12,
		"target":34963
	},
	{
		"buffer":1,
		"byteOffset":12,
		"byteLength":128,
		"target":34962,
		"byteStride":32
	},
	{
		"buffer":2,
		"byteOffset":0,
		"byteLength":12,
		"target":34963
	},
	{
		"buffer":2,
		"byteOffset":12,
		"byteLength":128,
		"target":34962,
		"byteStride":32
	},
	{
		"buffer":3,
		"byteOffset":0,
		"byteLength":12,
		"target":34963
	},
	{
		"buffer":3,
		"byteOffset":12,
		"byteLength":128,
		"target":34962,
		"byteStride":32
	},
	{
		"buffer":4,
		"byteOffset":0,
		"byteLength":12,
		"target":34963
	},
	{
		"buffer":4,
		"byteOffset":12,
		"byteLength":128,
		"target":34962,
		"byteStride":32
	},
	{
		"buffer":5,
		"byteOffset":0,
		"byteLength":12,
		"target":34963
	},
	{
		"buffer":5,
		"byteOffset":12,
		"byteLength":128,
		"target":34962,
		"byteStride":32
	},
	{
		"buffer":6,
		"byteOffset":0,
		"byteLength":36,
		"target":34963
	},
	{
		"buffer":6,
		"byteOffset":36,
		"byteLength":256,
		"target":34962,
		"byteStride":32
	},
	{
		"buffer":7,
		"byteOffset":0,
		"byteLength":12,
		"target":34963
	},
	{
		"buffer":7,
		"byteOffset":12,
		"byteLength":128,
		"target":34962,
		"byteStride":32
	},
	{
		"buffer":8,
		"byteOffset":0,
		"byteLength":12,
		"target":34963
	},
	{
		"buffer":8,
		"byteOffset":12,
		"byteLength":128,
		"target":34962,
		"byteStride":32
	},
	{
		"buffer":9,
		"byteOffset":0,
		"byteLength":12,
		"target":34963
	},
	{
		"buffer":9,
		"byteOffset":12,
		"byteLength":128,
		"target":34962,
		"byteStride":32
	}],
	"asset":{
		"version":"2.0",
		"generator":"Created using the official Cinema 4D glTF Exporter 1.000x284978"
	},
	"scenes":[{
		"nodes":[0]
	}],
	"materials":[{
		"pbrMetallicRoughness":{
			"baseColorTexture":{
				"index":0
			},
			"baseColorFactor":[0.8,
			0.8,
			0.8,
			1.0],
			"metallicFactor":0.0,
			"roughnessFactor":0.5
		},
		"emissiveFactor":[0.0,
		0.0,
		0.0],
		"alphaMode":"OPAQUE",
		"doubleSided":true,
		"name":"正面"
	},
	{
		"pbrMetallicRoughness":{
			"baseColorTexture":{
				"index":1
			},
			"baseColorFactor":[0.8,
			0.8,
			0.8,
			1.0],
			"metallicFactor":0.0,
			"roughnessFactor":0.5
		},
		"emissiveFactor":[0.0,
		0.0,
		0.0],
		"alphaMode":"OPAQUE",
		"doubleSided":true,
		"name":"侧面"
	},
	{
		"pbrMetallicRoughness":{
			"baseColorTexture":{
				"index":2
			},
			"baseColorFactor":[0.8,
			0.8,
			0.8,
			1.0],
			"metallicFactor":0.0,
			"roughnessFactor":0.5
		},
		"emissiveFactor":[0.0,
		0.0,
		0.0],
		"alphaMode":"OPAQUE",
		"doubleSided":true,
		"name":"材质"
	}],
	"nodes":[{
		"name":"立方体",
		"translation":[0.0,
		400.0,
		0.0],
		"rotation":[0.0,
		0.0,
		0.0,
		-1.0],
		"scale":[1.0,
		1.0,
		1.0],
		"children":[1,
		2,
		3,
		4,
		5,
		6,
		7,
		8,
		9,
		10]
	},
	{
		"name":"立方体-正面",
		"mesh":0
	},
	{
		"name":"立方体-侧面",
		"mesh":1
	},
	{
		"name":"立方体-侧面",
		"mesh":2
	},
	{
		"name":"立方体-侧面",
		"mesh":3
	},
	{
		"name":"立方体-侧面",
		"mesh":4
	},
	{
		"name":"立方体-正面",
		"mesh":5
	},
	{
		"name":"立方体-材质",
		"mesh":6
	},
	{
		"name":"立方体-侧面",
		"mesh":7
	},
	{
		"name":"立方体-侧面",
		"mesh":8
	},
	{
		"name":"立方体-正面",
		"mesh":9
	}],
	"meshes":[{
		"name":"立方体-正面",
		"primitives":[{
			"attributes":{
				"POSITION":1,
				"NORMAL":2,
				"TEXCOORD_0":3
			},
			"indices":0,
			"material":0
		}]
	},
	{
		"name":"立方体-侧面",
		"primitives":[{
			"attributes":{
				"POSITION":5,
				"NORMAL":6,
				"TEXCOORD_0":7
			},
			"indices":4,
			"material":1
		}]
	},
	{
		"name":"立方体-侧面",
		"primitives":[{
			"attributes":{
				"POSITION":9,
				"NORMAL":10,
				"TEXCOORD_0":11
			},
			"indices":8,
			"material":1
		}]
	},
	{
		"name":"立方体-侧面",
		"primitives":[{
			"attributes":{
				"POSITION":13,
				"NORMAL":14,
				"TEXCOORD_0":15
			},
			"indices":12,
			"material":1
		}]
	},
	{
		"name":"立方体-侧面",
		"primitives":[{
			"attributes":{
				"POSITION":17,
				"NORMAL":18,
				"TEXCOORD_0":19
			},
			"indices":16,
			"material":1
		}]
	},
	{
		"name":"立方体-正面",
		"primitives":[{
			"attributes":{
				"POSITION":21,
				"NORMAL":22,
				"TEXCOORD_0":23
			},
			"indices":20,
			"material":0
		}]
	},
	{
		"name":"立方体-材质",
		"primitives":[{
			"attributes":{
				"POSITION":25,
				"NORMAL":26,
				"TEXCOORD_0":27
			},
			"indices":24,
			"material":2
		}]
	},
	{
		"name":"立方体-侧面",
		"primitives":[{
			"attributes":{
				"POSITION":29,
				"NORMAL":30,
				"TEXCOORD_0":31
			},
			"indices":28,
			"material":1
		}]
	},
	{
		"name":"立方体-侧面",
		"primitives":[{
			"attributes":{
				"POSITION":33,
				"NORMAL":34,
				"TEXCOORD_0":35
			},
			"indices":32,
			"material":1
		}]
	},
	{
		"name":"立方体-正面",
		"primitives":[{
			"attributes":{
				"POSITION":37,
				"NORMAL":38,
				"TEXCOORD_0":39
			},
			"indices":36,
			"material":0
		}]
	}],
	"accessors":[{
		"bufferView":0,
		"max":[7],
		"count":18,
		"type":"SCALAR",
		"componentType":5123,
		"byteOffset":0,
		"min":[0]
	},
	{
		"bufferView":1,
		"max":[250.0,
		-400.0,
		150.0],
		"count":8,
		"type":"VEC3",
		"componentType":5126,
		"byteOffset":0,
		"min":[-250.0,
		-400.0,
		-150.0]
	},
	{
		"bufferView":1,
		"max":[0.0,
		-1.0,
		0.0],
		"count":8,
		"type":"VEC3",
		"componentType":5126,
		"byteOffset":12,
		"min":[0.0,
		-1.0,
		0.0]
	},
	{
		"bufferView":1,
		"max":[1.0,
		1.0],
		"count":8,
		"type":"VEC2",
		"componentType":5126,
		"byteOffset":24,
		"min":[0.0,
		0.0]
	},
	{
		"bufferView":2,
		"max":[3],
		"count":6,
		"type":"SCALAR",
		"componentType":5123,
		"byteOffset":0,
		"min":[0]
	},
	{
		"bufferView":3,
		"max":[-228.57142639160157,
		400.0,
		-120.0],
		"count":4,
		"type":"VEC3",
		"componentType":5126,
		"byteOffset":0,
		"min":[-250.0,
		-400.0,
		-150.0]
	},
	{
		"bufferView":3,
		"max":[-0.8136562705039978,
		0.0,
		-0.30515626072883608],
		"count":4,
		"type":"VEC3",
		"componentType":5126,
		"byteOffset":12,
		"min":[-0.952250063419342,
		0.0,
		-0.5812187790870667]
	},
	{
		"bufferView":3,
		"max":[0.04285714030265808,
		1.0],
		"count":4,
		"type":"VEC2",
		"componentType":5126,
		"byteOffset":24,
		"min":[-0.04285714030265808,
		0.0]
	},
	{
		"bufferView":4,
		"max":[3],
		"count":6,
		"type":"SCALAR",
		"componentType":5123,
		"byteOffset":0,
		"min":[0]
	},
	{
		"bufferView":5,
		"max":[250.0,
		400.0,
		150.0],
		"count":4,
		"type":"VEC3",
		"componentType":5126,
		"byteOffset":0,
		"min":[228.57142639160157,
		-400.0,
		120.0]
	},
	{
		"bufferView":5,
		"max":[0.952250063419342,
		0.0,
		0.5812187790870667],
		"count":4,
		"type":"VEC3",
		"componentType":5126,
		"byteOffset":12,
		"min":[0.8136562705039978,
		0.0,
		0.30515626072883608]
	},
	{
		"bufferView":5,
		"max":[1.1000001430511475,
		1.0],
		"count":4,
		"type":"VEC2",
		"componentType":5126,
		"byteOffset":24,
		"min":[0.8999999761581421,
		0.0]
	},
	{
		"bufferView":6,
		"max":[3],
		"count":6,
		"type":"SCALAR",
		"componentType":5123,
		"byteOffset":0,
		"min":[0]
	},
	{
		"bufferView":7,
		"max":[-228.57142639160157,
		400.0,
		150.0],
		"count":4,
		"type":"VEC3",
		"componentType":5126,
		"byteOffset":0,
		"min":[-250.0,
		-400.0,
		120.0]
	},
	{
		"bufferView":7,
		"max":[-0.8136562705039978,
		0.0,
		0.5812187790870667],
		"count":4,
		"type":"VEC3",
		"componentType":5126,
		"byteOffset":12,
		"min":[-0.952250063419342,
		0.0,
		0.30515626072883608]
	},
	{
		"bufferView":7,
		"max":[1.0428571701049805,
		1.0],
		"count":4,
		"type":"VEC2",
		"componentType":5126,
		"byteOffset":24,
		"min":[0.9571428298950195,
		0.0]
	},
	{
		"bufferView":8,
		"max":[3],
		"count":6,
		"type":"SCALAR",
		"componentType":5123,
		"byteOffset":0,
		"min":[0]
	},
	{
		"bufferView":9,
		"max":[-250.0,
		400.0,
		120.0],
		"count":4,
		"type":"VEC3",
		"componentType":5126,
		"byteOffset":0,
		"min":[-250.0,
		-400.0,
		-120.0]
	},
	{
		"bufferView":9,
		"max":[-0.952250063419342,
		0.0,
		0.30515626072883608],
		"count":4,
		"type":"VEC3",
		"componentType":5126,
		"byteOffset":12,
		"min":[-0.952250063419342,
		0.0,
		-0.30515626072883608]
	},
	{
		"bufferView":9,
		"max":[0.8999999761581421,
		1.0],
		"count":4,
		"type":"VEC2",
		"componentType":5126,
		"byteOffset":24,
		"min":[0.09999999403953552,
		0.0]
	},
	{
		"bufferView":10,
		"max":[3],
		"count":6,
		"type":"SCALAR",
		"componentType":5123,
		"byteOffset":0,
		"min":[0]
	},
	{
		"bufferView":11,
		"max":[228.57142639160157,
		400.0,
		150.0],
		"count":4,
		"type":"VEC3",
		"componentType":5126,
		"byteOffset":0,
		"min":[-228.57142639160157,
		-400.0,
		150.0]
	},
	{
		"bufferView":11,
		"max":[0.0,
		0.0,
		1.0],
		"count":4,
		"type":"VEC3",
		"componentType":5126,
		"byteOffset":12,
		"min":[0.0,
		0.0,
		1.0]
	},
	{
		"bufferView":11,
		"max":[0.9571428298950195,
		1.0],
		"count":4,
		"type":"VEC2",
		"componentType":5126,
		"byteOffset":24,
		"min":[0.04285714030265808,
		0.0]
	},
	{
		"bufferView":12,
		"max":[7],
		"count":18,
		"type":"SCALAR",
		"componentType":5123,
		"byteOffset":0,
		"min":[0]
	},
	{
		"bufferView":13,
		"max":[250.0,
		400.0,
		150.0],
		"count":8,
		"type":"VEC3",
		"componentType":5126,
		"byteOffset":0,
		"min":[-250.0,
		400.0,
		-150.0]
	},
	{
		"bufferView":13,
		"max":[0.0,
		1.0,
		0.0],
		"count":8,
		"type":"VEC3",
		"componentType":5126,
		"byteOffset":12,
		"min":[0.0,
		1.0,
		0.0]
	},
	{
		"bufferView":13,
		"max":[1.0,
		1.0],
		"count":8,
		"type":"VEC2",
		"componentType":5126,
		"byteOffset":24,
		"min":[0.0,
		0.0]
	},
	{
		"bufferView":14,
		"max":[3],
		"count":6,
		"type":"SCALAR",
		"componentType":5123,
		"byteOffset":0,
		"min":[0]
	},
	{
		"bufferView":15,
		"max":[250.0,
		400.0,
		-120.0],
		"count":4,
		"type":"VEC3",
		"componentType":5126,
		"byteOffset":0,
		"min":[228.57142639160157,
		-400.0,
		-150.0]
	},
	{
		"bufferView":15,
		"max":[0.952250063419342,
		0.0,
		-0.30515626072883608],
		"count":4,
		"type":"VEC3",
		"componentType":5126,
		"byteOffset":12,
		"min":[0.8136562705039978,
		0.0,
		-0.5812187790870667]
	},
	{
		"bufferView":15,
		"max":[1.0428569316864014,
		1.0],
		"count":4,
		"type":"VEC2",
		"componentType":5126,
		"byteOffset":24,
		"min":[0.9571428298950195,
		0.0]
	},
	{
		"bufferView":16,
		"max":[3],
		"count":6,
		"type":"SCALAR",
		"componentType":5123,
		"byteOffset":0,
		"min":[0]
	},
	{
		"bufferView":17,
		"max":[250.0,
		400.0,
		120.0],
		"count":4,
		"type":"VEC3",
		"componentType":5126,
		"byteOffset":0,
		"min":[250.0,
		-400.0,
		-120.0]
	},
	{
		"bufferView":17,
		"max":[0.952250063419342,
		0.0,
		0.30515626072883608],
		"count":4,
		"type":"VEC3",
		"componentType":5126,
		"byteOffset":12,
		"min":[0.952250063419342,
		0.0,
		-0.30515626072883608]
	},
	{
		"bufferView":17,
		"max":[0.8999999761581421,
		1.0],
		"count":4,
		"type":"VEC2",
		"componentType":5126,
		"byteOffset":24,
		"min":[0.09999999403953552,
		0.0]
	},
	{
		"bufferView":18,
		"max":[3],
		"count":6,
		"type":"SCALAR",
		"componentType":5123,
		"byteOffset":0,
		"min":[0]
	},
	{
		"bufferView":19,
		"max":[228.57142639160157,
		400.0,
		-150.0],
		"count":4,
		"type":"VEC3",
		"componentType":5126,
		"byteOffset":0,
		"min":[-228.57142639160157,
		-400.0,
		-150.0]
	},
	{
		"bufferView":19,
		"max":[0.0,
		0.0,
		-1.0],
		"count":4,
		"type":"VEC3",
		"componentType":5126,
		"byteOffset":12,
		"min":[0.0,
		0.0,
		-1.0]
	},
	{
		"bufferView":19,
		"max":[0.9571428298950195,
		1.0],
		"count":4,
		"type":"VEC2",
		"componentType":5126,
		"byteOffset":24,
		"min":[0.04285714030265808,
		0.0]
	}],
	"images":[{
		"uri":"data:image/jpeg;base64,"
	},
	{
		"uri":"data:image/jpeg;base64,"
	},
	{
		"uri":"data:image/jpeg;base64,"
	}],
	"buffers":[{
		"uri":"data:application/octet-stream;base64,",
		"byteLength":292
	},
	{
		"uri":"data:application/octet-stream;base64,",
		"byteLength":140
	},
	{
		"uri":"data:application/octet-stream;base64,",
		"byteLength":140
	},
	{
		"uri":"data:application/octet-stream;base64,",
		"byteLength":140
	},
	{
		"uri":"data:application/octet-stream;base64,",
		"byteLength":140
	},
	{
		"uri":"data:application/octet-stream;base64,",
		"byteLength":140
	},
	{
		"uri":"data:application/octet-stream;base64,",
		"byteLength":292
	},
	{
		"uri":"data:application/octet-stream;base64,",
		"byteLength":140
	},
	{
		"uri":"data:application/octet-stream;base64,",
		"byteLength":140
	},
	{
		"uri":"data:application/octet-stream;base64,",
		"byteLength":140
	}],
	"samplers":[{
		"magFilter":9729,
		"minFilter":9729,
		"wrapS":10497,
		"wrapT":10497
	},
	{
		"magFilter":9729,
		"minFilter":9729,
		"wrapS":10497,
		"wrapT":10497
	},
	{
		"magFilter":9729,
		"minFilter":9729,
		"wrapS":10497,
		"wrapT":10497
	}],
	"textures":[{
		"sampler":0,
		"source":0
	},
	{
		"sampler":1,
		"source":1
	},
	{
		"sampler":2,
		"source":2
	}]
}