{"asset":{"version":"2.0","generator":"GLTFExporter"},"scenes":[{"nodes":[0,1,2,3]}],"scene":0,"nodes":[{"mesh":0},{"mesh":1},{"mesh":2},{"mesh":3}],"bufferViews":[{"buffer":0,"byteOffset":0,"byteLength":432,"target":34962,"byteStride":12},{"buffer":0,"byteOffset":432,"byteLength":432,"target":34962,"byteStride":12},{"buffer":0,"byteOffset":864,"byteLength":432,"target":34962,"byteStride":12},{"buffer":0,"byteOffset":1296,"byteLength":288,"target":34962,"byteStride":8},{"buffer":0,"byteOffset":1584,"byteLength":1224,"target":34962,"byteStride":12},{"buffer":0,"byteOffset":2808,"byteLength":1224,"target":34962,"byteStride":12},{"buffer":0,"byteOffset":4032,"byteLength":1224,"target":34962,"byteStride":12},{"buffer":0,"byteOffset":5256,"byteLength":816,"target":34962,"byteStride":8},{"buffer":0,"byteOffset":6072,"byteLength":432,"target":34962,"byteStride":12},{"buffer":0,"byteOffset":6504,"byteLength":432,"target":34962,"byteStride":12},{"buffer":0,"byteOffset":6936,"byteLength":432,"target":34962,"byteStride":12},{"buffer":0,"byteOffset":7368,"byteLength":288,"target":34962,"byteStride":8},{"buffer":0,"byteOffset":7656,"byteLength":432,"target":34962,"byteStride":12},{"buffer":0,"byteOffset":8088,"byteLength":432,"target":34962,"byteStride":12},{"buffer":0,"byteOffset":8520,"byteLength":432,"target":34962,"byteStride":12},{"buffer":0,"byteOffset":8952,"byteLength":288,"target":34962,"byteStride":8}],"buffers":[{"byteLength":9240,"uri":"data:application/octet-stream;base64,"}],"accessors":[{"bufferView":0,"componentType":5126,"count":36,"max":[21,6,47],"min":[-20,6,-46],"type":"VEC3"},{"bufferView":1,"componentType":5126,"count":36,"max":[0,0,1],"min":[0,0,1],"type":"VEC3"},{"bufferView":2,"componentType":5126,"count":36,"max":[1,1,1],"min":[1,1,1],"type":"VEC3"},{"bufferView":3,"componentType":5126,"count":36,"max":[21,47],"min":[-20,-46],"type":"VEC2"},{"bufferView":4,"componentType":5126,"count":102,"max":[21,6,47],"min":[-20,0,-46],"type":"VEC3"},{"bufferView":5,"componentType":5126,"count":102,"max":[1,0,0.999614417552948],"min":[-1,0,-0.999614417552948],"type":"VEC3"},{"bufferView":6,"componentType":5126,"count":102,"max":[1,1,1],"min":[1,1,1],"type":"VEC3"},{"bufferView":7,"componentType":5126,"count":102,"max":[0.3515625,1],"min":[0,0.25],"type":"VEC2"},{"bufferView":8,"componentType":5126,"count":36,"max":[17,6,44],"min":[-13,0,3],"type":"VEC3"},{"bufferView":9,"componentType":5126,"count":36,"max":[1,0,0.9993628263473511],"min":[-0.9987523555755615,0,-0.9993148446083069],"type":"VEC3"},{"bufferView":10,"componentType":5126,"count":36,"max":[1,1,1],"min":[1,1,1],"type":"VEC3"},{"bufferView":11,"componentType":5126,"count":36,"max":[0.328125,1],"min":[0,0.25],"type":"VEC2"},{"bufferView":12,"componentType":5126,"count":36,"max":[14,6,-2],"min":[-16,0,-43],"type":"VEC3"},{"bufferView":13,"componentType":5126,"count":36,"max":[1,0,0.9993148446083069],"min":[-0.997199296951294,0,-0.9993628263473511],"type":"VEC3"},{"bufferView":14,"componentType":5126,"count":36,"max":[1,1,1],"min":[1,1,1],"type":"VEC3"},{"bufferView":15,"componentType":5126,"count":36,"max":[0.328125,1],"min":[0,0.25],"type":"VEC2"}],"materials":[{"pbrMetallicRoughness":{"baseColorFactor":[0.7254901960784313,0.7137254901960784,0.6862745098039216,1],"metallicFactor":0,"roughnessFactor":0.9},"extensions":{"KHR_materials_unlit":{}}},{"pbrMetallicRoughness":{"metallicFactor":0,"roughnessFactor":0.9,"baseColorTexture":{"index":0}},"extensions":{"KHR_materials_unlit":{}}},{"pbrMetallicRoughness":{"metallicFactor":0,"roughnessFactor":0.9,"baseColorTexture":{"index":0}},"extensions":{"KHR_materials_unlit":{}}},{"pbrMetallicRoughness":{"metallicFactor":0,"roughnessFactor":0.9,"baseColorTexture":{"index":0}},"extensions":{"KHR_materials_unlit":{}}}],"meshes":[{"primitives":[{"mode":4,"attributes":{"POSITION":0,"NORMAL":1,"COLOR_0":2,"TEXCOORD_0":3},"material":0}]},{"primitives":[{"mode":4,"attributes":{"POSITION":4,"NORMAL":5,"COLOR_0":6,"TEXCOORD_0":7},"material":1}]},{"primitives":[{"mode":4,"attributes":{"POSITION":8,"NORMAL":9,"COLOR_0":10,"TEXCOORD_0":11},"material":2}]},{"primitives":[{"mode":4,"attributes":{"POSITION":12,"NORMAL":13,"COLOR_0":14,"TEXCOORD_0":15},"material":3}]}],"textures":[{"sampler":0,"source":0}],"samplers":[{"magFilter":9729,"minFilter":9987,"wrapS":33071,"wrapT":33071}],"images":[{"mimeType":"image/png","uri":"data:image/png;base64,"}],"extensionsUsed":["KHR_materials_unlit"]}