{"asset":{"version":"2.0","generator":"GLTFExporter"},"scenes":[{"nodes":[0,1]}],"scene":0,"nodes":[{"mesh":0},{"mesh":1}],"bufferViews":[{"buffer":0,"byteOffset":0,"byteLength":72,"target":34962,"byteStride":12},{"buffer":0,"byteOffset":72,"byteLength":72,"target":34962,"byteStride":12},{"buffer":0,"byteOffset":144,"byteLength":72,"target":34962,"byteStride":12},{"buffer":0,"byteOffset":216,"byteLength":48,"target":34962,"byteStride":8},{"buffer":0,"byteOffset":264,"byteLength":288,"target":34962,"byteStride":12},{"buffer":0,"byteOffset":552,"byteLength":288,"target":34962,"byteStride":12},{"buffer":0,"byteOffset":840,"byteLength":288,"target":34962,"byteStride":12},{"buffer":0,"byteOffset":1128,"byteLength":192,"target":34962,"byteStride":8}],"buffers":[{"byteLength":1320,"uri":"data:application/octet-stream;base64,"}],"accessors":[{"bufferView":0,"componentType":5126,"count":6,"max":[9,6,6],"min":[-8,6,-5],"type":"VEC3"},{"bufferView":1,"componentType":5126,"count":6,"max":[0,0,1],"min":[0,0,1],"type":"VEC3"},{"bufferView":2,"componentType":5126,"count":6,"max":[1,1,1],"min":[1,1,1],"type":"VEC3"},{"bufferView":3,"componentType":5126,"count":6,"max":[9,6],"min":[-8,-5],"type":"VEC2"},{"bufferView":4,"componentType":5126,"count":24,"max":[9,6,6],"min":[-8,0,-5],"type":"VEC3"},{"bufferView":5,"componentType":5126,"count":24,"max":[0.936329185962677,0,0.9778023958206177],"min":[-0.936329185962677,0,-0.9778023958206177],"type":"VEC3"},{"bufferView":6,"componentType":5126,"count":24,"max":[1,1,1],"min":[1,1,1],"type":"VEC3"},{"bufferView":7,"componentType":5126,"count":24,"max":[0.28125,1],"min":[0,0.25],"type":"VEC2"}],"materials":[{"pbrMetallicRoughness":{"baseColorFactor":[0.7254901960784313,0.7137254901960784,0.6862745098039216,1],"metallicFactor":0,"roughnessFactor":0.9},"extensions":{"KHR_materials_unlit":{}}},{"pbrMetallicRoughness":{"metallicFactor":0,"roughnessFactor":0.9,"baseColorTexture":{"index":0}},"extensions":{"KHR_materials_unlit":{}}}],"meshes":[{"primitives":[{"mode":4,"attributes":{"POSITION":0,"NORMAL":1,"COLOR_0":2,"TEXCOORD_0":3},"material":0}]},{"primitives":[{"mode":4,"attributes":{"POSITION":4,"NORMAL":5,"COLOR_0":6,"TEXCOORD_0":7},"material":1}]}],"textures":[{"sampler":0,"source":0}],"samplers":[{"magFilter":9729,"minFilter":9987,"wrapS":33071,"wrapT":33071}],"images":[{"mimeType":"image/png","uri":"data:image/png;base64,"}],"extensionsUsed":["KHR_materials_unlit"]}