{"asset":{"version":"2.0","generator":"sl-gltf"},"scenes":[{"nodes":[0,1]}],"scene":0,"nodes":[{"mesh":0},{"mesh":1}],"bufferViews":[{"buffer":0,"byteOffset":0,"byteLength":288,"target":34962,"byteStride":12},{"buffer":0,"byteOffset":288,"byteLength":288,"target":34962,"byteStride":12},{"buffer":0,"byteOffset":576,"byteLength":288,"target":34962,"byteStride":12},{"buffer":0,"byteOffset":864,"byteLength":192,"target":34962,"byteStride":8},{"buffer":0,"byteOffset":1056,"byteLength":720,"target":34962,"byteStride":12},{"buffer":0,"byteOffset":1776,"byteLength":720,"target":34962,"byteStride":12},{"buffer":0,"byteOffset":2496,"byteLength":720,"target":34962,"byteStride":12},{"buffer":0,"byteOffset":3216,"byteLength":480,"target":34962,"byteStride":8}],"buffers":[{"byteLength":3696,"uri":"data:application/octet-stream;base64,"}],"accessors":[{"bufferView":0,"componentType":5126,"count":24,"max":[29,30,50],"min":[-37,30,-48],"type":"VEC3"},{"bufferView":1,"componentType":5126,"count":24,"max":[0,0,1],"min":[0,0,1],"type":"VEC3"},{"bufferView":2,"componentType":5126,"count":24,"max":[1,1,1],"min":[1,1,1],"type":"VEC3"},{"bufferView":3,"componentType":5126,"count":24,"max":[0.515625,1],"min":[0,0.234375],"type":"VEC2"},{"bufferView":4,"componentType":5126,"count":60,"max":[29,30,50],"min":[-37,0,-48],"type":"VEC3"},{"bufferView":5,"componentType":5126,"count":60,"max":[0.9847835302352905,0,0.9950371980667114],"min":[-0.9764282703399658,0,-0.991227924823761],"type":"VEC3"},{"bufferView":6,"componentType":5126,"count":60,"max":[1,1,1],"min":[1,1,1],"type":"VEC3"},{"bufferView":7,"componentType":5126,"count":60,"max":[0.78125,1],"min":[0,0.0625],"type":"VEC2"}],"materials":[{"pbrMetallicRoughness":{"metallicFactor":0.5,"roughnessFactor":0.5,"baseColorTexture":{"index":0}}},{"pbrMetallicRoughness":{"metallicFactor":0.5,"roughnessFactor":0.5,"baseColorTexture":{"index":1}}}],"textures":[{"sampler":0,"source":0},{"sampler":1,"source":1}],"samplers":[{},{}],"images":[{"mimeType":"image/png","uri":"data:image/png;base64,"},{"mimeType":"image/png","uri":"data:image/png;base64,"}],"meshes":[{"primitives":[{"mode":4,"attributes":{"POSITION":0,"NORMAL":1,"COLOR_0":2,"TEXCOORD_0":3},"material":0}]},{"primitives":[{"mode":4,"attributes":{"POSITION":4,"NORMAL":5,"COLOR_0":6,"TEXCOORD_0":7},"material":1}]}]}