{"accessors":[{"name":"立方体-Mesh_0_positions","componentType":5126,"count":8,"min":[-243.8356475830078,-603.2522583007812,58.09720230102539],"max":[107.98564910888672,5.522494316101074,376.2655334472656],"type":"VEC3","bufferView":0,"byteOffset":0},{"name":"立方体-Mesh_0_normals","componentType":5126,"count":8,"min":[-0.5807183384895325,-0.04958095774054527,-0.8125933408737183],"max":[0.5807183384895325,0.049580931663513184,0.8125933408737183],"type":"VEC3","bufferView":1,"byteOffset":0},{"name":"立方体-Mesh_0_texcoords","componentType":5126,"count":8,"min":[0,0],"max":[1,1],"type":"VEC2","bufferView":2,"byteOffset":0},{"name":"立方体-Mesh_0_indices","componentType":5123,"count":12,"min":[0],"max":[7],"type":"SCALAR","bufferView":3,"byteOffset":0},{"name":"立方体-Mesh_1_positions","componentType":5126,"count":12,"min":[-243.8356475830078,-603.2522583007812,58.09720230102539],"max":[107.98564910888672,5.522494316101074,376.2655334472656],"type":"VEC3","bufferView":0,"byteOffset":96},{"name":"立方体-Mesh_1_normals","componentType":5126,"count":12,"min":[-0.8133731484413147,-0.9987457990646362,-0.5817006826400757],"max":[0.8133730888366699,0.006967119872570038,0.5817006230354309],"type":"VEC3","bufferView":1,"byteOffset":96},{"name":"立方体-Mesh_1_texcoords","componentType":5126,"count":12,"min":[0,0],"max":[1,1],"type":"VEC2","bufferView":2,"byteOffset":64},{"name":"立方体-Mesh_1_indices","componentType":5123,"count":18,"min":[0],"max":[11],"type":"SCALAR","bufferView":3,"byteOffset":24},{"name":"立方体-Mesh_2_positions","componentType":5126,"count":4,"min":[-243.8356475830078,-4.004785537719727,58.09720230102539],"max":[87.28402709960938,5.522494316101074,354.49639892578125],"type":"VEC3","bufferView":0,"byteOffset":240},{"name":"立方体-Mesh_2_normals","componentType":5126,"count":4,"min":[-0.03450270742177963,0.9987457990646362,-0.03628186509013176],"max":[-0.03450270742177963,0.9987457990646362,-0.03628186509013176],"type":"VEC3","bufferView":1,"byteOffset":240},{"name":"立方体-Mesh_2_texcoords","componentType":5126,"count":4,"min":[0,0],"max":[1,1],"type":"VEC2","bufferView":2,"byteOffset":160},{"name":"立方体-Mesh_2_indices","componentType":5123,"count":6,"min":[0],"max":[3],"type":"SCALAR","bufferView":3,"byteOffset":60}],"asset":{"generator":"obj2gltf","version":"2.0"},"buffers":[{"name":"玻璃幕墙","byteLength":840,"uri":"data:application/octet-stream;base64,"}],"bufferViews":[{"name":"bufferView_0","buffer":0,"byteLength":288,"byteOffset":0,"byteStride":12,"target":34962},{"name":"bufferView_1","buffer":0,"byteLength":288,"byteOffset":288,"byteStride":12,"target":34962},{"name":"bufferView_2","buffer":0,"byteLength":192,"byteOffset":576,"byteStride":8,"target":34962},{"name":"bufferView_3","buffer":0,"byteLength":72,"byteOffset":768,"target":34963}],"materials":[{"name":"正面","pbrMetallicRoughness":{"baseColorFactor":[0.80000001192093,0.80000001192093,0.80000001192093,1],"metallicFactor":0,"roughnessFactor":0.95},"emissiveFactor":[0,0,0],"alphaMode":"OPAQUE","doubleSided":false},{"name":"侧面","pbrMetallicRoughness":{"baseColorFactor":[0.80000001192093,0.80000001192093,0.80000001192093,1],"metallicFactor":0,"roughnessFactor":0.95},"emissiveFactor":[0,0,0],"alphaMode":"OPAQUE","doubleSided":false},{"name":"顶部","pbrMetallicRoughness":{"baseColorFactor":[0.93725490570068,0.90588235855103,0.82745099067688,1],"metallicFactor":0,"roughnessFactor":0.95},"emissiveFactor":[0,0,0],"alphaMode":"OPAQUE","doubleSided":false}],"meshes":[{"name":"立方体-Mesh","primitives":[{"attributes":{"POSITION":0,"NORMAL":1,"TEXCOORD_0":2},"indices":3,"material":0,"mode":4},{"attributes":{"POSITION":4,"NORMAL":5,"TEXCOORD_0":6},"indices":7,"material":1,"mode":4},{"attributes":{"POSITION":8,"NORMAL":9,"TEXCOORD_0":10},"indices":11,"material":2,"mode":4}]}],"nodes":[{"name":"立方体","mesh":0}],"scene":0,"scenes":[{"nodes":[0]}]}