{"asset":{"version":"2.0","generator":"GLTFExporter"},"scenes":[{"nodes":[0,1]}],"scene":0,"nodes":[{"mesh":0},{"mesh":1}],"bufferViews":[{"buffer":0,"byteOffset":0,"byteLength":3456,"target":34962,"byteStride":12},{"buffer":0,"byteOffset":3456,"byteLength":3456,"target":34962,"byteStride":12},{"buffer":0,"byteOffset":6912,"byteLength":3456,"target":34962,"byteStride":12},{"buffer":0,"byteOffset":10368,"byteLength":2304,"target":34962,"byteStride":8},{"buffer":0,"byteOffset":12672,"byteLength":15264,"target":34962,"byteStride":12},{"buffer":0,"byteOffset":27936,"byteLength":15264,"target":34962,"byteStride":12},{"buffer":0,"byteOffset":43200,"byteLength":15264,"target":34962,"byteStride":12},{"buffer":0,"byteOffset":58464,"byteLength":10176,"target":34962,"byteStride":8}],"buffers":[{"byteLength":68640,"uri":"data:application/octet-stream;base64,"}],"accessors":[{"bufferView":0,"componentType":5126,"count":288,"max":[63,60,98],"min":[-66,60,-100],"type":"VEC3"},{"bufferView":1,"componentType":5126,"count":288,"max":[0,0,1],"min":[0,0,1],"type":"VEC3"},{"bufferView":2,"componentType":5126,"count":288,"max":[1,1,1],"min":[1,1,1],"type":"VEC3"},{"bufferView":3,"componentType":5126,"count":288,"max":[63,98],"min":[-66,-100],"type":"VEC2"},{"bufferView":4,"componentType":5126,"count":1272,"max":[63,60,98],"min":[-66,0,-100],"type":"VEC3"},{"bufferView":5,"componentType":5126,"count":1272,"max":[1,0,0.954479992389679],"min":[-1,0,-1],"type":"VEC3"},{"bufferView":6,"componentType":5126,"count":1272,"max":[1,1,1],"min":[1,1,1],"type":"VEC3"},{"bufferView":7,"componentType":5126,"count":1272,"max":[0.699999988079071,1],"min":[0,0],"type":"VEC2"}],"materials":[{"pbrMetallicRoughness":{"baseColorFactor":[0.6666666666666666,0.6666666666666666,0.6666666666666666,1],"metallicFactor":0,"roughnessFactor":0.9},"extensions":{"KHR_materials_unlit":{}}},{"pbrMetallicRoughness":{"metallicFactor":0.5,"roughnessFactor":0.5,"baseColorTexture":{"index":0}}}],"meshes":[{"primitives":[{"mode":4,"attributes":{"POSITION":0,"NORMAL":1,"COLOR_0":2,"TEXCOORD_0":3},"material":0}]},{"primitives":[{"mode":4,"attributes":{"POSITION":4,"NORMAL":5,"COLOR_0":6,"TEXCOORD_0":7},"material":1}]}],"textures":[{"sampler":0,"source":0}],"samplers":[{"magFilter":9729,"minFilter":9987,"wrapS":33071,"wrapT":33071}],"images":[{"mimeType":"image/png","uri":"data:image/png;base64,"}],"extensionsUsed":["KHR_materials_unlit"]}