{
  "accessors": [
    {
      "name": "球体-Mesh_0_positions",
      "componentType": 5126,
      "count": 20261,
      "min": [
        -135.81396484375,
        16.5939884185791,
        -119.78643798828125
      ],
      "max": [
        135.81396484375,
        242.5594024658203,
        149.51766967773438
      ],
      "type": "VEC3",
      "bufferView": 0,
      "byteOffset": 0
    },
    {
      "name": "球体-Mesh_0_normals",
      "componentType": 5126,
      "count": 20261,
      "min": [
        -1,
        -0.9994648098945618,
        -1
      ],
      "max": [
        0.9994645714759827,
        0.9999375343322754,
        1
      ],
      "type": "VEC3",
      "bufferView": 1,
      "byteOffset": 0
    },
    {
      "name": "球体-Mesh_0_texcoords",
      "componentType": 5126,
      "count": 20261,
      "min": [
        0,
        0
      ],
      "max": [
        1,
        0.7291666269302368
      ],
      "type": "VEC2",
      "bufferView": 2,
      "byteOffset": 0
    },
    {
      "name": "球体-Mesh_0_indices",
      "componentType": 5123,
      "count": 85455,
      "min": [
        0
      ],
      "max": [
        20260
      ],
      "type": "SCALAR",
      "bufferView": 3,
      "byteOffset": 0
    },
    {
      "name": "圆柱-Mesh_0_positions",
      "componentType": 5126,
      "count": 4851,
      "min": [
        -316.0804138183594,
        -3.1765801906585693,
        -249.86550903320312
      ],
      "max": [
        316.0804138183594,
        31.967897415161133,
        227.8379669189453
      ],
      "type": "VEC3",
      "bufferView": 0,
      "byteOffset": 243132
    },
    {
      "name": "圆柱-Mesh_0_normals",
      "componentType": 5126,
      "count": 4851,
      "min": [
        -1,
        -0.5780674815177917,
        -1
      ],
      "max": [
        1,
        1,
        1
      ],
      "type": "VEC3",
      "bufferView": 1,
      "byteOffset": 243132
    },
    {
      "name": "圆柱-Mesh_0_texcoords",
      "componentType": 5126,
      "count": 4851,
      "min": [
        0,
        -0.0028727054595947266
      ],
      "max": [
        1,
        1
      ],
      "type": "VEC2",
      "bufferView": 2,
      "byteOffset": 162088
    },
    {
      "name": "圆柱-Mesh_0_indices",
      "componentType": 5123,
      "count": 13998,
      "min": [
        0
      ],
      "max": [
        4850
      ],
      "type": "SCALAR",
      "bufferView": 3,
      "byteOffset": 170912
    }
  ],
  "asset": {
    "generator": "obj2gltf",
    "version": "2.0"
  },
  "buffers": [
    {
      "name": "杭州A",
      "byteLength": 1002492,
      "uri": "data:application/octet-stream;base64,"
    }
  ],
  "bufferViews": [
    {
      "name": "bufferView_0",
      "buffer": 0,
      "byteLength": 301344,
      "byteOffset": 0,
      "byteStride": 12,
      "target": 34962
    },
    {
      "name": "bufferView_1",
      "buffer": 0,
      "byteLength": 301344,
      "byteOffset": 301344,
      "byteStride": 12,
      "target": 34962
    },
    {
      "name": "bufferView_2",
      "buffer": 0,
      "byteLength": 200896,
      "byteOffset": 602688,
      "byteStride": 8,
      "target": 34962
    },
    {
      "name": "bufferView_3",
      "buffer": 0,
      "byteLength": 198908,
      "byteOffset": 803584,
      "target": 34963
    }
  ],
  "materials": [
    {
      "name": "材质.1",
      "pbrMetallicRoughness": {
        "baseColorFactor": [
          0.9609375,
          0.8125,
          0.11328125,
          0.8
        ],
        "metallicFactor": 0,
        "roughnessFactor": 1
      },
      "emissiveFactor": [
        0,
        0,
        0
      ],
      "alphaMode": "BLEND",
      "doubleSided": true
    }
  ],
  "meshes": [
    {
      "name": "球体-Mesh",
      "primitives": [
        {
          "attributes": {
            "POSITION": 0,
            "NORMAL": 1,
            "TEXCOORD_0": 2
          },
          "indices": 3,
          "material": 0,
          "mode": 4
        }
      ]
    },
    {
      "name": "圆柱-Mesh",
      "primitives": [
        {
          "attributes": {
            "POSITION": 4,
            "NORMAL": 5,
            "TEXCOORD_0": 6
          },
          "indices": 7,
          "material": 0,
          "mode": 4
        }
      ]
    }
  ],
  "nodes": [
    {
      "name": "球体",
      "mesh": 0
    },
    {
      "name": "圆柱",
      "mesh": 1
    }
  ],
  "scene": 0,
  "scenes": [
    {
      "nodes": [
        0,
        1
      ]
    }
  ]
}
